<svg width="68" height="68" viewBox="0 0 68 68" fill="none" xmlns="http://www.w3.org/2000/svg">
<path d="M61.05 33.5034C61.05 26.2836 58.1819 19.3595 53.0767 14.2543C47.9715 9.14915 41.0474 6.2811 33.8276 6.2811C26.6078 6.2811 19.6837 9.14915 14.5785 14.2543C9.47337 19.3595 6.60532 26.2836 6.60532 33.5034C6.60532 40.7232 9.47337 47.6473 14.5785 52.7525C19.6837 57.8577 26.6078 60.7257 33.8276 60.7257C41.0474 60.7257 47.9715 57.8577 53.0767 52.7525C58.1819 47.6473 61.05 40.7232 61.05 33.5034ZM0.323242 33.5034C0.323242 24.6175 3.85316 16.0955 10.1365 9.81223C16.4197 3.52894 24.9417 -0.000976562 33.8276 -0.000976562C42.7136 -0.000976562 51.2355 3.52894 57.5188 9.81223C63.8021 16.0955 67.332 24.6175 67.332 33.5034C67.332 42.3893 63.8021 50.9113 57.5188 57.1946C51.2355 63.4779 42.7136 67.0078 33.8276 67.0078C24.9417 67.0078 16.4197 63.4779 10.1365 57.1946C3.85316 50.9113 0.323242 42.3893 0.323242 33.5034ZM23.5669 41.6309C25.5562 43.7772 28.959 46.0676 33.8276 46.0676C38.6962 46.0676 42.099 43.7772 44.0884 41.6309C45.2662 40.3614 47.2556 40.2697 48.5251 41.4476C49.7946 42.6255 49.8862 44.6148 48.7083 45.8843C45.829 48.9992 40.8557 52.3496 33.8407 52.3496C26.8257 52.3496 21.8393 49.0123 18.9731 45.8843C17.7953 44.6148 17.8738 42.6255 19.1564 41.4476C20.439 40.2697 22.4152 40.3483 23.5931 41.6309H23.5669ZM19.2218 27.2213C19.2218 26.1106 19.6631 25.0454 20.4485 24.2599C21.2339 23.4745 22.2991 23.0333 23.4099 23.0333C24.5206 23.0333 25.5859 23.4745 26.3713 24.2599C27.1567 25.0454 27.5979 26.1106 27.5979 27.2213C27.5979 28.3321 27.1567 29.3973 26.3713 30.1827C25.5859 30.9682 24.5206 31.4094 23.4099 31.4094C22.2991 31.4094 21.2339 30.9682 20.4485 30.1827C19.6631 29.3973 19.2218 28.3321 19.2218 27.2213ZM40.9211 30.0614C39.9265 31.1215 38.2774 31.1738 37.2173 30.1792C36.1572 29.1845 36.1049 27.5354 37.0995 26.4753C38.9973 24.4468 41.7064 23.5568 44.2454 23.5568C46.7844 23.5568 49.4936 24.4468 51.3913 26.4753C52.3859 27.5354 52.3205 29.1845 51.2735 30.1792C50.2265 31.1738 48.5643 31.1084 47.5697 30.0614C46.8499 29.3023 45.6327 28.7919 44.2454 28.7919C42.8581 28.7919 41.641 29.2892 40.9211 30.0614Z" fill="url(#paint0_linear_999_561)"/>
<defs>
<linearGradient id="paint0_linear_999_561" x1="0.323242" y1="33.375" x2="67.332" y2="33.375" gradientUnits="userSpaceOnUse">
<stop stop-color="#FDA8FF"/>
<stop offset="0.5" stop-color="white"/>
<stop offset="1" stop-color="#73F2FF"/>
</linearGradient>
</defs>
</svg>
