<svg width="17" height="115" viewBox="0 0 17 115" fill="none" xmlns="http://www.w3.org/2000/svg">
<path d="M0.557875 114.713V103.518H3.58196V111.324H6.69183V103.925H9.56578V111.324H16V114.713H0.557875ZM0.557875 101.937L0.557875 94.7948C0.557875 92.9503 0.972524 91.5706 1.80182 90.6555C2.63112 89.7261 3.74639 89.2614 5.14762 89.2614C5.93402 89.2614 6.64894 89.4687 7.29236 89.8834C7.93578 90.2837 8.47911 90.8628 8.92236 91.6206C9.22262 90.9915 9.61583 90.5196 10.102 90.2051C10.5881 89.8905 11.1815 89.6832 11.8821 89.5831L16 88.9611V92.4142L12.4397 92.9289C11.6533 93.0433 11.0742 93.2935 10.7025 93.6796C10.3307 94.0656 10.1449 94.6304 10.1449 95.3739V98.5481H16V101.937H0.557875ZM7.52828 95.3525C7.52828 94.466 7.3567 93.8082 7.01354 93.3793C6.65608 92.9503 6.1199 92.7359 5.40499 92.7359C4.00376 92.7359 3.30314 93.6081 3.30314 95.3525V98.5481H7.52828V95.3525ZM0.557875 87.2546V75.6301H3.58196V83.8659H6.69183V76.252H9.56578V83.8659H12.9759V75.673H16L16 87.2546H0.557875ZM0.557875 73.7871L0.557875 62.1626H3.58196V70.3984H6.69183V62.7846H9.56578V70.3984H12.9759V62.2055H16V73.7871H0.557875ZM16.2574 48.2347C16.2574 49.8647 15.9071 51.2659 15.2064 52.4384C14.4915 53.6109 13.5335 54.5045 12.3325 55.1193C11.1171 55.7198 9.76596 56.0201 8.27894 56.0201C6.79192 56.0201 5.44788 55.7198 4.24683 55.1193C3.03147 54.5045 2.07349 53.6109 1.37288 52.4384C0.657962 51.2659 0.300505 49.8647 0.300505 48.2347C0.300505 46.9479 0.550725 45.804 1.05116 44.8031C1.53731 43.7879 2.22362 42.9729 3.11012 42.3581C3.98231 41.7433 4.97604 41.3501 6.0913 41.1785L6.0913 44.6101C5.24771 44.8246 4.57569 45.2464 4.07525 45.8755C3.56051 46.5046 3.30314 47.291 3.30314 48.2347C3.30314 49.6645 3.76784 50.7369 4.69722 51.4518C5.62661 52.1524 6.82051 52.5027 8.27894 52.5027C9.73736 52.5027 10.9313 52.1524 11.8607 51.4518C12.79 50.7369 13.2547 49.6645 13.2547 48.2347C13.2547 47.2338 12.9688 46.4188 12.3968 45.7897C11.8106 45.1606 11.0457 44.7531 10.102 44.5672V41.1356C11.2744 41.2786 12.3325 41.6575 13.2762 42.2723C14.2056 42.8729 14.9348 43.6879 15.4638 44.7173C15.9929 45.7325 16.2574 46.905 16.2574 48.2347ZM12.9545 29.3824V35.881L16 36.9534V40.4064L0.557875 34.6371V30.6478L16 24.7284V28.3101L12.9545 29.3824ZM10.102 30.3905L3.66775 32.6424L10.102 34.8944V30.3905ZM0.557875 23.3522V19.9635H12.9759V12.7357H16V23.3522H0.557875ZM0.557875 11.1414V7.75275H12.9759V0.524973H16V11.1414H0.557875Z" fill="url(#paint0_linear_799_393)"/>
<defs>
<linearGradient id="paint0_linear_799_393" x1="7.44061" y1="115.957" x2="7.44061" y2="-0.0429687" gradientUnits="userSpaceOnUse">
<stop stop-color="#FDA8FF"/>
<stop offset="0.5" stop-color="white"/>
<stop offset="1" stop-color="#73F2FF"/>
</linearGradient>
</defs>
</svg>
