<svg width="32" height="33" viewBox="0 0 32 33" fill="none" xmlns="http://www.w3.org/2000/svg">
<path d="M17.3708 3.41375C18.3438 3.41002 19.3167 3.4198 20.2894 3.44308L20.5481 3.45242C20.8468 3.46308 21.1414 3.47642 21.4974 3.49242C22.9161 3.55908 23.8841 3.78308 24.7334 4.11242C25.6135 4.45108 26.3548 4.90975 27.0961 5.65108C27.7739 6.31722 28.2986 7.12301 28.6335 8.01242C28.9628 8.86175 29.1868 9.83108 29.2535 11.2497C29.2695 11.6044 29.2828 11.9004 29.2935 12.1991L29.3015 12.4577C29.3251 13.43 29.3354 14.4025 29.3321 15.3751L29.3335 16.3698V18.1164C29.3367 19.0894 29.3265 20.0624 29.3028 21.0351L29.2948 21.2937C29.2841 21.5924 29.2708 21.8871 29.2548 22.2431C29.1881 23.6617 28.9615 24.6297 28.6335 25.4791C28.2996 26.3694 27.7749 27.1759 27.0961 27.8417C26.4294 28.5195 25.6232 29.0441 24.7334 29.3791C23.8841 29.7084 22.9161 29.9324 21.4974 29.9991C21.1414 30.0151 20.8468 30.0284 20.5481 30.0391L20.2894 30.0471C19.3167 30.0708 18.3438 30.081 17.3708 30.0777L16.3761 30.0791H14.6308C13.6578 30.0824 12.6848 30.0721 11.7121 30.0484L11.4535 30.0404C11.1369 30.0289 10.8205 30.0156 10.5041 30.0004C9.08545 29.9337 8.11745 29.7071 7.26678 29.3791C6.37703 29.0449 5.5711 28.5202 4.90545 27.8417C4.22685 27.1755 3.70175 26.3692 3.36678 25.4791C3.03745 24.6297 2.81345 23.6617 2.74678 22.2431C2.73194 21.9267 2.7186 21.6103 2.70678 21.2937L2.70012 21.0351C2.67554 20.0624 2.66442 19.0894 2.66678 18.1164V15.3751C2.66306 14.4025 2.67284 13.43 2.69612 12.4577L2.70545 12.1991C2.71612 11.9004 2.72945 11.6044 2.74545 11.2497C2.81212 9.82975 3.03612 8.86308 3.36545 8.01242C3.70062 7.12258 4.22674 6.31701 4.90678 5.65242C5.57198 4.97342 6.3774 4.44785 7.26678 4.11242C8.11745 3.78308 9.08412 3.55908 10.5041 3.49242L11.4535 3.45242L11.7121 3.44575C12.6844 3.42118 13.6569 3.41007 14.6295 3.41242L17.3708 3.41375ZM16.0001 10.0804C15.1168 10.0679 14.2398 10.2311 13.4201 10.5605C12.6004 10.8899 11.8543 11.3789 11.2252 11.9992C10.5962 12.6194 10.0967 13.3585 9.7557 14.1734C9.41475 14.9884 9.23917 15.863 9.23917 16.7464C9.23917 17.6298 9.41475 18.5044 9.7557 19.3194C10.0967 20.1344 10.5962 20.8734 11.2252 21.4937C11.8543 22.1139 12.6004 22.6029 13.4201 22.9323C14.2398 23.2617 15.1168 23.4249 16.0001 23.4124C17.7682 23.4124 19.4639 22.71 20.7142 21.4598C21.9644 20.2096 22.6668 18.5139 22.6668 16.7457C22.6668 14.9776 21.9644 13.2819 20.7142 12.0317C19.4639 10.7815 17.7682 10.0804 16.0001 10.0804ZM16.0001 12.7471C16.5315 12.7373 17.0594 12.8335 17.5532 13.03C18.0469 13.2266 18.4966 13.5195 18.8758 13.8918C19.2551 14.2641 19.5564 14.7082 19.762 15.1982C19.9677 15.6882 20.0737 16.2143 20.0738 16.7457C20.0739 17.2772 19.9681 17.8033 19.7626 18.2934C19.557 18.7835 19.2559 19.2277 18.8768 19.6001C18.4976 19.9725 18.0481 20.2656 17.5544 20.4623C17.0607 20.659 16.5328 20.7554 16.0015 20.7457C14.9406 20.7457 13.9232 20.3243 13.173 19.5742C12.4229 18.824 12.0015 17.8066 12.0015 16.7457C12.0015 15.6849 12.4229 14.6675 13.173 13.9173C13.9232 13.1672 14.9406 12.7457 16.0015 12.7457L16.0001 12.7471ZM23.0001 8.08042C22.57 8.09763 22.1632 8.28062 21.8649 8.59104C21.5667 8.90147 21.4001 9.31526 21.4001 9.74575C21.4001 10.1762 21.5667 10.59 21.8649 10.9005C22.1632 11.2109 22.57 11.3939 23.0001 11.4111C23.4421 11.4111 23.8661 11.2355 24.1786 10.9229C24.4912 10.6104 24.6668 10.1864 24.6668 9.74442C24.6668 9.30239 24.4912 8.87847 24.1786 8.56591C23.8661 8.25334 23.4421 8.07775 23.0001 8.07775V8.08042Z" fill="url(#paint0_linear_799_390)"/>
<defs>
<linearGradient id="paint0_linear_799_390" x1="2.66602" y1="16.6948" x2="29.334" y2="16.6948" gradientUnits="userSpaceOnUse">
<stop stop-color="#FDA8FF"/>
<stop offset="0.5" stop-color="white"/>
<stop offset="1" stop-color="#73F2FF"/>
</linearGradient>
</defs>
</svg>
