<svg width="160" height="52" viewBox="0 0 160 52" fill="none" xmlns="http://www.w3.org/2000/svg">
<path d="M10.4788 26.2478L6.63431 24.5942C6.08312 24.3737 5.75902 23.9741 5.66201 23.3954C5.565 22.8166 5.72374 22.3205 6.13824 21.9072L11.347 16.6984C11.7328 16.3126 12.1875 16.037 12.7112 15.8716C13.2348 15.7063 13.7722 15.6787 14.3234 15.789L16.473 16.2437C15.0124 17.9799 13.8483 19.558 12.9807 20.9779C12.1131 22.3977 11.2792 24.1543 10.4788 26.2478ZM34.7862 10.1255C35.0067 10.1255 35.2272 10.1806 35.4476 10.2909C35.6681 10.4011 35.861 10.5389 36.0264 10.7043C36.1917 10.8696 36.3295 11.0625 36.4398 11.283C36.55 11.5035 36.6051 11.724 36.6051 11.9444C36.7154 14.5075 36.1714 17.1669 34.9731 19.9229C33.7748 22.6788 32.0865 25.1454 29.9082 27.3226C28.42 28.8108 26.9869 30.003 25.6089 30.8992C24.231 31.7955 22.605 32.6426 20.7309 33.4408C20.3727 33.5786 20.0078 33.6475 19.6363 33.6475C19.2648 33.6475 18.9407 33.5097 18.664 33.2341L13.4966 28.0667C13.221 27.7911 13.0832 27.467 13.0832 27.0944C13.0832 26.7218 13.1521 26.3569 13.2899 25.9997C14.0891 24.1532 14.9368 22.5339 15.8331 21.1416C16.7293 19.7493 17.921 18.3095 19.4081 16.8224C21.5853 14.6453 24.0518 12.957 26.8078 11.7576C29.5637 10.5582 32.2232 10.0142 34.7862 10.1255ZM24.2861 22.4446C24.92 23.0784 25.6988 23.3954 26.6226 23.3954C27.5464 23.3954 28.3246 23.0784 28.9574 22.4446C29.5913 21.8107 29.9082 21.0324 29.9082 20.1097C29.9082 19.187 29.5913 18.4082 28.9574 17.7732C28.3235 17.1394 27.5447 16.8224 26.6209 16.8224C25.6971 16.8224 24.9189 17.1394 24.2861 17.7732C23.6522 18.4071 23.3353 19.1859 23.3353 20.1097C23.3353 21.0335 23.6522 21.8118 24.2861 22.4446ZM20.4829 36.2518C22.5774 35.4526 24.3412 34.6192 25.7743 33.7516C27.2074 32.8841 28.7921 31.7194 30.5283 30.2576L30.9417 32.4073C31.0519 32.9585 31.0244 33.503 30.859 34.041C30.6937 34.579 30.4181 35.0403 30.0322 35.425L24.8235 40.6338C24.4101 41.0471 23.914 41.1987 23.3353 41.0885C22.7565 40.9782 22.3569 40.6475 22.1365 40.0963L20.4829 36.2518ZM7.0477 32.6884C8.01228 31.7293 9.18631 31.2426 10.5698 31.2283C11.9533 31.2151 13.1245 31.6907 14.0836 32.6553C15.0427 33.6199 15.5222 34.7912 15.5222 36.1691C15.5222 37.5471 15.0399 38.7184 14.0753 39.683C13.3864 40.3719 12.236 40.9645 10.6244 41.4605C9.01268 41.9566 6.78698 42.3976 3.94727 42.7834C4.3331 39.9448 4.77405 37.7235 5.27012 36.1195C5.76619 34.5167 6.35871 33.373 7.0477 32.6884Z" fill="url(#paint0_linear_1058_573)"/>
<path d="M47.9537 13.7838H59.3474C61.4428 13.7838 63.2286 14.1529 64.7049 14.891C66.2051 15.6292 67.3361 16.653 68.0981 17.9627C68.86 19.2723 69.241 20.7843 69.241 22.4987C69.241 24.2131 68.86 25.7252 68.0981 27.0348C67.3361 28.3444 66.2051 29.3683 64.7049 30.1064C63.2286 30.8446 61.4428 31.2137 59.3474 31.2137H54.4185V39.5H47.9537V13.7838ZM58.8831 25.749C60.1689 25.749 61.1452 25.487 61.8119 24.9632C62.4786 24.4393 62.8119 23.6179 62.8119 22.4987C62.8119 21.3796 62.4786 20.57 61.8119 20.07C61.169 19.5461 60.1927 19.2842 58.8831 19.2842H54.4185V25.749H58.8831ZM71.7691 20.9272H77.591V24.356C78.6387 21.9273 80.4126 20.7129 82.9128 20.7129H84.4486V26.1061H82.5913C80.9484 26.1061 79.7221 26.5109 78.9125 27.3205C78.1267 28.1301 77.7338 29.5112 77.7338 31.4637V39.5H71.7691V20.9272ZM86.3712 41.9288H89.5143C90.4191 41.9288 91.0501 41.7978 91.4073 41.5359C91.7645 41.2739 92.0859 40.7382 92.3716 39.9286L85.3711 20.9272H91.8002L95.6576 34.2853L99.3007 20.9272H105.73L98.6578 40.6429C97.9435 42.6193 97.0148 44.1075 95.8719 45.1076C94.7528 46.1314 93.1693 46.6434 91.1215 46.6434H86.3712V41.9288ZM130.774 29.0706C130.774 28.0229 130.571 27.1896 130.166 26.5705C129.762 25.9276 129.095 25.6061 128.166 25.6061C127.19 25.6061 126.428 25.9514 125.88 26.6419C125.356 27.3086 125.095 28.2492 125.095 29.4635V39.5H119.13V29.0706C119.13 28.0229 118.927 27.1896 118.523 26.5705C118.118 25.9276 117.451 25.6061 116.522 25.6061C115.546 25.6061 114.784 25.9514 114.237 26.6419C113.713 27.3086 113.451 28.2492 113.451 29.4635V39.5H107.486V20.9272H113.308V23.5702C114.689 21.5225 116.522 20.4986 118.808 20.4986C120.023 20.4986 121.106 20.7843 122.059 21.3558C123.011 21.9273 123.749 22.7726 124.273 23.8917C125.011 22.8678 125.904 22.0463 126.952 21.4272C128 20.8081 129.166 20.4986 130.452 20.4986C132.333 20.4986 133.845 21.1534 134.988 22.463C136.155 23.7488 136.738 25.7013 136.738 28.3206V39.5H130.774V29.0706ZM149.101 39.9286C147.029 39.9286 145.256 39.5119 143.779 38.6785C142.303 37.8213 141.184 36.6665 140.422 35.214C139.66 33.7377 139.279 32.0709 139.279 30.2136C139.279 28.3563 139.66 26.7014 140.422 25.2489C141.184 23.7726 142.303 22.6178 143.779 21.7844C145.256 20.9272 147.029 20.4986 149.101 20.4986C151.173 20.4986 152.935 20.9272 154.387 21.7844C155.863 22.6178 156.983 23.7726 157.745 25.2489C158.507 26.7014 158.888 28.3563 158.888 30.2136C158.888 32.0709 158.507 33.7377 157.745 35.214C156.983 36.6665 155.863 37.8213 154.387 38.6785C152.935 39.5119 151.173 39.9286 149.101 39.9286ZM145.279 30.2136C145.279 33.4995 146.553 35.1425 149.101 35.1425C151.625 35.1425 152.887 33.4995 152.887 30.2136C152.887 26.9276 151.625 25.2846 149.101 25.2846C146.553 25.2846 145.279 26.9276 145.279 30.2136Z" fill="url(#paint1_linear_1058_573)"/>
<defs>
<linearGradient id="paint0_linear_1058_573" x1="3.94727" y1="26.3848" x2="36.6191" y2="26.3848" gradientUnits="userSpaceOnUse">
<stop stop-color="#FDA8FF"/>
<stop offset="0.46875" stop-color="white"/>
<stop offset="1" stop-color="#DCFCFF"/>
</linearGradient>
<linearGradient id="paint1_linear_1058_573" x1="-1" y1="25.9023" x2="159.989" y2="25.9023" gradientUnits="userSpaceOnUse">
<stop stop-color="#FDA8FF"/>
<stop offset="0.5" stop-color="white"/>
<stop offset="1" stop-color="#73F2FF"/>
</linearGradient>
</defs>
</svg>
