<svg width="243" height="75" viewBox="0 0 243 75" fill="none" xmlns="http://www.w3.org/2000/svg">
<path d="M14.9652 37.8668L9.28469 35.4236C8.47028 35.0978 7.99141 34.5074 7.84807 33.6522C7.70474 32.7971 7.93929 32.0641 8.55172 31.4533L16.2479 23.7572C16.818 23.1871 17.4898 22.7799 18.2635 22.5356C19.0372 22.2912 19.8313 22.2505 20.6457 22.4134L23.8219 23.0853C21.6637 25.6507 19.9436 27.9823 18.6618 30.0802C17.3799 32.1782 16.1477 34.7737 14.9652 37.8668ZM50.8805 14.0454C51.2063 14.0454 51.5321 14.1268 51.8578 14.2897C52.1836 14.4526 52.4686 14.6562 52.7129 14.9005C52.9573 15.1448 53.1609 15.4299 53.3237 15.7556C53.4866 16.0814 53.5681 16.4072 53.5681 16.7329C53.7309 20.5199 52.9271 24.4494 51.1566 28.5215C49.3861 32.5935 46.8916 36.238 43.673 39.4549C41.4741 41.6538 39.3567 43.4153 37.3206 44.7396C35.2846 46.0638 32.8821 47.3155 30.1131 48.4948C29.5838 48.6984 29.0446 48.8002 28.4957 48.8002C27.9468 48.8002 27.468 48.5966 27.0591 48.1894L19.4241 40.5543C19.0169 40.1471 18.8132 39.6683 18.8132 39.1177C18.8132 38.5672 18.915 38.028 19.1187 37.5003C20.2995 34.772 21.5521 32.3793 22.8763 30.3221C24.2006 28.2649 25.9613 26.1377 28.1586 23.9404C31.3755 20.7235 35.0199 18.229 39.092 16.4568C43.164 14.6847 47.0935 13.8809 50.8805 14.0454ZM35.3661 32.2474C36.3026 33.1839 37.4534 33.6522 38.8183 33.6522C40.1833 33.6522 41.3332 33.1839 42.2682 32.2474C43.2047 31.3108 43.673 30.1609 43.673 28.7975C43.673 27.4342 43.2047 26.2835 42.2682 25.3453C41.3316 24.4087 40.1808 23.9404 38.8159 23.9404C37.451 23.9404 36.301 24.4087 35.3661 25.3453C34.4295 26.2818 33.9612 27.4326 33.9612 28.7975C33.9612 30.1625 34.4295 31.3124 35.3661 32.2474ZM29.7467 52.6483C32.8414 51.4674 35.4475 50.236 37.565 48.9541C39.6824 47.6722 42.0239 45.9514 44.5892 43.7916L45.2 46.9678C45.3629 47.7822 45.3222 48.5868 45.0779 49.3817C44.8336 50.1765 44.4264 50.8582 43.8563 51.4267L36.1601 59.1228C35.5493 59.7336 34.8163 59.9576 33.9612 59.7947C33.1061 59.6318 32.5156 59.1432 32.1899 58.3288L29.7467 52.6483ZM9.89549 47.3831C11.3207 45.9661 13.0554 45.2469 15.0996 45.2258C17.1437 45.2062 18.8743 45.9091 20.2914 47.3343C21.7085 48.7595 22.417 50.4901 22.417 52.5261C22.417 54.5621 21.7044 56.2927 20.2792 57.718C19.2612 58.736 17.5615 59.6115 15.1802 60.3444C12.7989 61.0774 9.51028 61.7289 5.31445 62.299C5.88454 58.1048 6.53606 54.8227 7.26903 52.4528C8.002 50.0845 8.87748 48.3946 9.89549 47.3831Z" fill="#FDF7E4"/>
<path d="M70.0185 58V20.003H87.6449C97.5136 20.003 103.055 25.4387 103.055 33.5131C103.055 41.5346 97.5136 46.9703 87.6449 46.9703H81.9981V58H70.0185ZM81.9981 36.9433H86.6422C89.4392 36.9433 91.1807 36.4156 91.1807 33.5131C91.1807 30.5577 89.4392 30.03 86.6422 30.03H81.9981V36.9433ZM106.082 58V30.5577H116.848V35.3074C118.22 31.9299 120.595 30.2411 124.183 30.2411H126.505V40.057H123.603C118.959 40.057 117.059 41.9041 117.059 47.3925V58H106.082ZM129.421 68.5547V60.0582H134.276C136.334 60.0582 137.284 59.7943 137.97 58.7916L127.679 30.5577H139.5L144.092 48.6063L148.208 30.5577H159.976L150.372 58.3166C148.155 64.5439 144.672 68.5547 137.073 68.5547H129.421ZM196.301 43.54C196.301 41.3763 195.931 39.2654 193.451 39.2654C190.285 39.2654 190.179 41.6402 190.179 43.4345V58H179.149V43.54C179.149 41.3763 178.78 39.2654 176.3 39.2654C173.186 39.2654 173.028 41.6402 173.028 43.4345V58H162.051V30.5577H172.817V34.3574C174.611 31.8243 177.249 29.9245 180.838 29.9245C184.005 29.9245 187.065 31.1382 188.807 34.7269C191.023 32.0354 194.243 29.9245 197.99 29.9245C202.739 29.9245 207.278 32.7215 207.278 42.1152V58H196.301V43.54ZM225.409 58.6333C215.435 58.6333 210.316 52.406 210.316 44.2789C210.316 36.1517 215.435 29.9245 225.409 29.9245C235.383 29.9245 240.502 36.1517 240.502 44.2789C240.502 52.406 235.383 58.6333 225.409 58.6333ZM221.293 44.2789C221.293 48.0258 222.243 50.0312 225.409 50.0312C228.576 50.0312 229.525 48.0258 229.525 44.2789C229.525 40.5319 228.576 38.5265 225.409 38.5265C222.243 38.5265 221.293 40.5319 221.293 44.2789Z" fill="#FDF7E4"/>
</svg>
