<svg width="600" height="600" viewBox="0 0 600 600" fill="none" xmlns="http://www.w3.org/2000/svg">
<path d="M137.954 296.701L74.4114 269.371C65.3014 265.727 59.9447 259.122 58.3413 249.557C56.738 239.991 59.3617 231.792 66.2124 224.96L152.302 138.871C158.679 132.494 166.195 127.939 174.85 125.206C183.504 122.473 192.386 122.017 201.496 123.839L237.026 131.355C212.884 160.051 193.644 186.133 179.304 209.601C164.965 233.068 151.182 262.101 137.954 296.701ZM539.707 30.2345C543.351 30.2345 546.995 31.1455 550.639 32.9675C554.283 34.7895 557.471 37.0669 560.204 39.7999C562.937 42.5329 565.215 45.7214 567.037 49.3654C568.859 53.0094 569.77 56.6534 569.77 60.2974C571.592 102.659 562.6 146.614 542.795 192.164C522.99 237.714 495.086 278.481 459.083 314.465C434.486 339.062 410.8 358.767 388.024 373.58C365.249 388.393 338.375 402.395 307.401 415.586C301.479 417.864 295.448 419.002 289.308 419.002C283.168 419.002 277.811 416.725 273.238 412.17L187.831 326.764C183.276 322.209 180.999 316.852 180.999 310.694C180.999 304.536 182.138 298.505 184.415 292.602C197.625 262.083 211.636 235.318 226.449 212.306C241.262 189.294 260.958 165.499 285.537 140.921C321.521 104.936 362.289 77.0324 407.839 57.2091C453.389 37.3858 497.345 28.3943 539.707 30.2345ZM366.16 233.842C376.637 244.319 389.509 249.557 404.778 249.557C420.046 249.557 432.91 244.319 443.368 233.842C453.844 223.366 459.083 210.502 459.083 195.252C459.083 180.002 453.844 167.13 443.368 156.635C432.891 146.159 420.019 140.921 404.751 140.921C389.482 140.921 376.619 146.159 366.16 156.635C355.684 167.112 350.446 179.984 350.446 195.252C350.446 210.521 355.684 223.384 366.16 233.842ZM303.301 462.047C337.919 448.837 367.071 435.063 390.758 420.724C414.444 406.385 440.635 387.136 469.332 362.976L476.164 398.505C477.986 407.615 477.531 416.616 474.798 425.507C472.065 434.398 467.51 442.023 461.133 448.382L375.043 534.471C368.21 541.304 360.011 543.809 350.446 541.987C340.88 540.165 334.275 534.699 330.631 525.589L303.301 462.047ZM81.244 403.151C97.1865 387.3 116.591 379.256 139.457 379.019C162.323 378.8 181.682 386.662 197.534 402.604C213.385 418.547 221.311 437.905 221.311 460.68C221.311 483.455 213.34 502.814 197.397 518.756C186.009 530.144 166.997 539.937 140.359 548.136C113.721 556.335 76.9349 563.623 30 570C36.377 523.084 43.6651 486.371 51.8641 459.861C60.0631 433.369 69.8564 414.466 81.244 403.151Z" fill="url(#paint0_linear_7_59)"/>
<defs>
<linearGradient id="paint0_linear_7_59" x1="30" y1="298.966" x2="570" y2="298.966" gradientUnits="userSpaceOnUse">
<stop stop-color="#FDA8FF"/>
<stop offset="0.5" stop-color="white"/>
<stop offset="1" stop-color="#73F2FF"/>
</linearGradient>
</defs>
</svg>
