<svg width="32" height="33" viewBox="0 0 32 33" fill="none" xmlns="http://www.w3.org/2000/svg">
<path d="M26.6665 24.195H23.9998V12.5283L15.9998 17.5283L7.99984 12.5283V24.195H5.33317V8.19499H6.93317L15.9998 13.8617L25.0665 8.19499H26.6665M26.6665 5.52832H5.33317C3.85317 5.52832 2.6665 6.71499 2.6665 8.19499V24.195C2.6665 24.9022 2.94746 25.5805 3.44755 26.0806C3.94765 26.5807 4.62593 26.8617 5.33317 26.8617H26.6665C27.3737 26.8617 28.052 26.5807 28.5521 26.0806C29.0522 25.5805 29.3332 24.9022 29.3332 24.195V8.19499C29.3332 7.48774 29.0522 6.80947 28.5521 6.30937C28.052 5.80927 27.3737 5.52832 26.6665 5.52832Z" fill="url(#paint0_linear_799_392)"/>
<defs>
<linearGradient id="paint0_linear_799_392" x1="2.6665" y1="16.1541" x2="29.3332" y2="16.1541" gradientUnits="userSpaceOnUse">
<stop stop-color="#FDA8FF"/>
<stop offset="0.5" stop-color="white"/>
<stop offset="1" stop-color="#73F2FF"/>
</linearGradient>
</defs>
</svg>
