<svg width="58" height="59" viewBox="0 0 58 59" fill="none" xmlns="http://www.w3.org/2000/svg">
<path d="M9.34924 25.896C8.87135 25.896 8.41304 25.7062 8.07512 25.3683C7.7372 25.0303 7.54736 24.572 7.54736 24.0941V9.68273C7.54736 9.20485 7.7372 8.74653 8.07512 8.40862C8.41304 8.0707 8.87135 7.88086 9.34924 7.88086H23.7642C24.2421 7.88086 24.7004 8.0707 25.0384 8.40862C25.3763 8.74653 25.5661 9.20485 25.5661 9.68273V24.0941C25.5661 24.572 25.3763 25.0303 25.0384 25.3683C24.7004 25.7062 24.2421 25.896 23.7642 25.896H9.34924ZM34.5755 25.896C34.0976 25.896 33.6393 25.7062 33.3014 25.3683C32.9635 25.0303 32.7736 24.572 32.7736 24.0941V9.68273C32.7736 9.20485 32.9635 8.74653 33.3014 8.40862C33.6393 8.0707 34.0976 7.88086 34.5755 7.88086H48.9869C49.4648 7.88086 49.9231 8.0707 50.261 8.40862C50.5989 8.74653 50.7888 9.20485 50.7888 9.68273V24.0941C50.7888 24.572 50.5989 25.0303 50.261 25.3683C49.9231 25.7062 49.4648 25.896 48.9869 25.896H34.5755ZM9.34924 51.1223C8.87135 51.1223 8.41304 50.9324 8.07512 50.5945C7.7372 50.2566 7.54736 49.7983 7.54736 49.3204V34.9054C7.54736 34.4275 7.7372 33.9692 8.07512 33.6313C8.41304 33.2934 8.87135 33.1035 9.34924 33.1035H23.7642C24.2421 33.1035 24.7004 33.2934 25.0384 33.6313C25.3763 33.9692 25.5661 34.4275 25.5661 34.9054V49.3204C25.5661 49.7983 25.3763 50.2566 25.0384 50.5945C24.7004 50.9324 24.2421 51.1223 23.7642 51.1223H9.34924ZM34.5755 51.1223C34.0976 51.1223 33.6393 50.9324 33.3014 50.5945C32.9635 50.2566 32.7736 49.7983 32.7736 49.3204V34.9054C32.7736 34.4275 32.9635 33.9692 33.3014 33.6313C33.6393 33.2934 34.0976 33.1035 34.5755 33.1035H48.9869C49.4648 33.1035 49.9231 33.2934 50.261 33.6313C50.5989 33.9692 50.7888 34.4275 50.7888 34.9054V49.3204C50.7888 49.7983 50.5989 50.2566 50.261 50.5945C49.9231 50.9324 49.4648 51.1223 48.9869 51.1223H34.5755Z" fill="url(#paint0_linear_799_388)"/>
<defs>
<linearGradient id="paint0_linear_799_388" x1="7.54736" y1="29.4187" x2="50.7888" y2="29.4187" gradientUnits="userSpaceOnUse">
<stop stop-color="#FDA8FF"/>
<stop offset="0.5" stop-color="white"/>
<stop offset="1" stop-color="#73F2FF"/>
</linearGradient>
</defs>
</svg>
