<svg width="112" height="112" viewBox="0 0 112 112" fill="none" xmlns="http://www.w3.org/2000/svg">
<path d="M95.459 16.5409H95.452L107.184 18.8859C107.814 19.0119 108.332 19.4739 108.514 20.0969C108.606 20.3995 108.614 20.7214 108.538 21.0283C108.461 21.3352 108.303 21.6157 108.08 21.8399L98.469 31.4579C97.3191 32.6056 95.7607 33.2501 94.136 33.2499H86.17L66.15 53.2769C66.5319 54.719 66.6022 56.226 66.356 57.6974C66.1099 59.1689 65.553 60.5709 64.7225 61.8103C63.892 63.0496 62.8069 64.0977 61.5396 64.8848C60.2722 65.6719 58.8517 66.1799 57.3726 66.3749C55.8936 66.57 54.3899 66.4476 52.9619 66.0159C51.5338 65.5843 50.2141 64.8532 49.0907 63.8715C47.9674 62.8899 47.0661 61.6801 46.4469 60.3227C45.8277 58.9654 45.5049 57.4917 45.5 55.9999C45.5011 54.3891 45.8724 52.8001 46.5855 51.3558C47.2985 49.9114 48.334 48.6503 49.6121 47.67C50.8901 46.6896 52.3765 46.0162 53.9563 45.7018C55.5361 45.3874 57.167 45.4405 58.723 45.8569L78.75 25.8229V17.8639C78.75 16.2399 79.394 14.6789 80.542 13.5309L90.16 3.91286C90.3842 3.68976 90.6647 3.53159 90.9716 3.45517C91.2785 3.37875 91.6004 3.38694 91.903 3.47886C92.526 3.66086 92.988 4.17886 93.114 4.80886L95.459 16.5409Z" fill="url(#paint0_linear_934_951)"/>
<path d="M13.9999 55.9996C14.007 62.0053 15.3022 67.9396 17.7978 73.4023C20.2935 78.8649 23.9317 83.7288 28.4669 87.6658C33.0022 91.6029 38.3291 94.5215 44.0882 96.2247C49.8473 97.928 55.9048 98.3764 61.8519 97.5396C67.7991 96.7028 73.4976 94.6002 78.5631 91.3738C83.6286 88.1474 87.9432 83.8722 91.2159 78.8365C94.4887 73.8008 96.6434 68.1218 97.5347 62.1826C98.426 56.2434 98.0332 50.1821 96.3829 44.4076C96.1511 43.7329 96.0592 43.0182 96.1125 42.3069C96.1658 41.5955 96.3633 40.9025 96.6931 40.27C97.0228 39.6374 97.4778 39.0786 98.0304 38.6275C98.583 38.1764 99.2216 37.8425 99.9073 37.6461C100.593 37.4497 101.312 37.3949 102.019 37.4851C102.727 37.5752 103.409 37.8085 104.023 38.1705C104.638 38.5326 105.172 39.016 105.594 39.5913C106.016 40.1665 106.316 40.8216 106.477 41.5166C109.673 52.6993 109.066 64.6264 104.751 75.4269C100.437 86.2274 92.6587 95.29 82.6377 101.193C72.6168 107.096 60.9198 109.505 49.3817 108.043C37.8436 106.581 27.1174 101.33 18.8859 93.1136C10.6633 84.884 5.40649 74.1568 3.94089 62.6161C2.47528 51.0754 4.88385 39.3747 10.7884 29.3511C16.693 19.3275 25.7592 11.5486 36.5636 7.23576C47.3681 2.92291 59.2989 2.32031 70.4829 5.52258C71.8146 5.91186 72.938 6.81245 73.6077 8.02754C74.2774 9.24263 74.4389 10.6734 74.0569 12.0072C73.6749 13.341 72.7804 14.4694 71.569 15.1457C70.3576 15.822 68.9277 15.9913 67.5919 15.6166C61.3379 13.8222 54.7527 13.5051 48.3553 14.6902C41.9579 15.8754 35.9232 18.5303 30.727 22.4458C25.5308 26.3612 21.3152 31.4302 18.4124 37.253C15.5096 43.0758 13.9991 49.4933 13.9999 55.9996Z" fill="url(#paint1_linear_934_951)"/>
<path d="M35.0004 56.0001C35.0008 59.8263 36.0459 63.5797 38.0228 66.8555C39.9997 70.1314 42.8334 72.8053 46.2184 74.5889C49.6034 76.3725 53.4111 77.1981 57.2308 76.9766C61.0505 76.7551 64.7373 75.495 67.8934 73.3321C71.049 71.1638 73.5517 68.1741 75.1309 64.6862C76.7102 61.1983 77.3058 57.3451 76.8534 53.5431C76.7311 52.6206 76.8568 51.682 77.2178 50.8242C77.5787 49.9664 78.1617 49.2202 78.9069 48.6626C79.652 48.105 80.5323 47.7561 81.4571 47.6518C82.3819 47.5475 83.3178 47.6915 84.1684 48.0691C85.0189 48.4418 85.7552 49.0334 86.3025 49.7836C86.8497 50.5337 87.1882 51.4155 87.2834 52.3391C88.044 58.8358 86.7633 65.4082 83.619 71.144C80.4747 76.8797 75.6229 81.4944 69.7368 84.3475C63.8508 87.2006 57.2225 88.1506 50.7721 87.0656C44.3216 85.9806 38.3689 82.9145 33.7402 78.2928C29.1114 73.671 26.0362 67.723 24.9414 61.2742C23.8467 54.8254 24.7866 48.1957 27.6307 42.3053C30.4749 36.415 35.0822 31.5561 40.8132 28.4031C46.5442 25.2501 53.1146 23.9594 59.6124 24.7101C60.3082 24.7747 60.9841 24.9775 61.6004 25.3066C62.2168 25.6358 62.7613 26.0847 63.2019 26.627C63.6426 27.1693 63.9705 27.7941 64.1665 28.4648C64.3626 29.1355 64.4228 29.8386 64.3435 30.5328C64.2643 31.2271 64.0473 31.8985 63.7052 32.5078C63.3632 33.1171 62.9029 33.652 62.3514 34.0811C61.8 34.5102 61.1684 34.8249 60.4937 35.0068C59.819 35.1886 59.1148 35.234 58.4224 35.1401C55.48 34.7985 52.4986 35.0832 49.6741 35.9756C46.8495 36.8679 44.2457 38.3478 42.0337 40.3179C39.8216 42.288 38.0514 44.7037 36.8392 47.4065C35.627 50.1093 35.0004 53.038 35.0004 56.0001Z" fill="url(#paint2_linear_934_951)"/>
<defs>
<linearGradient id="paint0_linear_934_951" x1="45.5" y1="34.8134" x2="108.59" y2="34.8134" gradientUnits="userSpaceOnUse">
<stop stop-color="#FDA8FF"/>
<stop offset="0.5" stop-color="white"/>
<stop offset="1" stop-color="#73F2FF"/>
</linearGradient>
<linearGradient id="paint1_linear_934_951" x1="3.52246" y1="55.776" x2="108.498" y2="55.776" gradientUnits="userSpaceOnUse">
<stop stop-color="#FDA8FF"/>
<stop offset="0.5" stop-color="white"/>
<stop offset="1" stop-color="#73F2FF"/>
</linearGradient>
<linearGradient id="paint2_linear_934_951" x1="24.4971" y1="55.8813" x2="87.4971" y2="55.8813" gradientUnits="userSpaceOnUse">
<stop stop-color="#FDA8FF"/>
<stop offset="0.5" stop-color="white"/>
<stop offset="1" stop-color="#73F2FF"/>
</linearGradient>
</defs>
</svg>
