<svg width="112" height="112" viewBox="0 0 112 112" fill="none" xmlns="http://www.w3.org/2000/svg">
<path d="M35.0003 26.133L23.3336 32.6663L29.8669 20.9997L23.3336 9.33301L35.0003 15.8663L46.6669 9.33301L40.1336 20.9997L46.6669 32.6663L35.0003 26.133ZM91.0003 71.8663L102.667 65.333L96.1336 76.9997L102.667 88.6663L91.0003 82.133L79.3336 88.6663L85.8669 76.9997L79.3336 65.333L91.0003 71.8663ZM102.667 9.33301L96.1336 20.9997L102.667 32.6663L91.0003 26.133L79.3336 32.6663L85.8669 20.9997L79.3336 9.33301L91.0003 15.8663L102.667 9.33301ZM62.2536 59.6397L73.6403 48.253L63.7469 38.3597L52.3603 49.7463L62.2536 59.6397ZM67.0603 34.0197L77.9803 44.9397C79.8003 46.6663 79.8003 49.6997 77.9803 51.5197L23.5203 105.98C21.7003 107.8 18.6669 107.8 16.9403 105.98L6.02027 95.0597C4.20027 93.333 4.20027 90.2997 6.02027 88.4797L60.4803 34.0197C62.3003 32.1997 65.3336 32.1997 67.0603 34.0197Z" fill="url(#paint0_linear_934_954)"/>
<defs>
<linearGradient id="paint0_linear_934_954" x1="4.65527" y1="58.1511" x2="102.667" y2="58.1511" gradientUnits="userSpaceOnUse">
<stop stop-color="#FDA8FF"/>
<stop offset="0.5" stop-color="white"/>
<stop offset="1" stop-color="#73F2FF"/>
</linearGradient>
</defs>
</svg>
