<svg width="112" height="112" viewBox="0 0 112 112" fill="none" xmlns="http://www.w3.org/2000/svg">
<path d="M56 7C68.9956 7 81.4589 12.1625 90.6482 21.3518C99.8375 30.541 105 43.0044 105 56C105 68.9956 99.8375 81.4589 90.6482 90.6482C81.4589 99.8375 68.9956 105 56 105C43.0044 105 30.541 99.8375 21.3518 90.6482C12.1625 81.4589 7 68.9956 7 56C7 43.0044 12.1625 30.541 21.3518 21.3518C30.541 12.1625 43.0044 7 56 7ZM49.896 65.667L39.011 54.775C38.6208 54.3848 38.1575 54.0752 37.6477 53.864C37.1378 53.6529 36.5914 53.5442 36.0395 53.5442C35.4876 53.5442 34.9412 53.6529 34.4313 53.864C33.9215 54.0752 33.4582 54.3848 33.068 54.775C32.2799 55.5631 31.8372 56.632 31.8372 57.7465C31.8372 58.861 32.2799 59.9299 33.068 60.718L46.928 74.578C47.3171 74.9702 47.78 75.2815 48.29 75.4939C48.8 75.7063 49.347 75.8156 49.8995 75.8156C50.452 75.8156 50.999 75.7063 51.509 75.4939C52.019 75.2815 52.4819 74.9702 52.871 74.578L81.571 45.871C81.9664 45.4824 82.281 45.0193 82.4966 44.5086C82.7122 43.9978 82.8245 43.4493 82.8271 42.8949C82.8297 42.3405 82.7225 41.7911 82.5116 41.2783C82.3008 40.7655 81.9905 40.2996 81.5987 39.9073C81.2069 39.515 80.7413 39.2042 80.2288 38.9928C79.7163 38.7814 79.167 38.6735 78.6126 38.6754C78.0581 38.6773 77.5096 38.789 76.9985 39.004C76.4875 39.219 76.0241 39.533 75.635 39.928L49.896 65.667Z" fill="url(#paint0_linear_934_957)"/>
<defs>
<linearGradient id="paint0_linear_934_957" x1="7" y1="55.8123" x2="105" y2="55.8123" gradientUnits="userSpaceOnUse">
<stop stop-color="#FDA8FF"/>
<stop offset="0.5" stop-color="white"/>
<stop offset="1" stop-color="#73F2FF"/>
</linearGradient>
</defs>
</svg>
