<svg width="41" height="40" viewBox="0 0 41 40" fill="none" xmlns="http://www.w3.org/2000/svg">
<path d="M21.9927 6.66634V3.33301C29.7593 4.16634 35.876 10.3163 36.7427 18.083C37.7427 27.233 31.1593 35.4663 21.9927 36.4663V33.133C28.0593 32.383 32.826 27.5997 33.5927 21.533C33.8086 19.795 33.6797 18.0314 33.2134 16.3432C32.7471 14.6551 31.9525 13.0754 30.8751 11.6946C29.7977 10.3138 28.4586 9.15894 26.9345 8.29615C25.4103 7.43335 23.7311 6.87952 21.9927 6.66634ZM9.77601 6.99967C12.3023 4.91399 15.3975 3.63642 18.6593 3.33301V6.76634C16.276 7.09967 14.026 8.06634 12.1593 9.56634L9.77601 6.99967ZM3.74268 18.333C4.05217 15.0696 5.33548 11.9746 7.42601 9.44967L9.80934 11.833C8.33265 13.7158 7.38867 15.9607 7.07601 18.333H3.74268ZM7.44268 30.5497C5.37214 28.0128 4.09146 24.9241 3.75934 21.6663H7.09268C7.39268 24.033 8.34268 26.283 9.80934 28.1663L7.44268 30.5497ZM9.77601 32.8997L12.0927 30.6163H12.1593C14.0427 32.083 16.2927 33.033 18.6593 33.333V36.6663C15.3927 36.3163 12.2927 34.9997 9.77601 32.8997ZM20.326 28.333L22.926 22.633L28.6593 19.9997L22.926 17.3997L20.326 11.6663L17.7093 17.3997L11.9927 19.9997L17.7093 22.633L20.326 28.333Z" fill="url(#paint0_linear_897_432)"/>
<defs>
<linearGradient id="paint0_linear_897_432" x1="3.74268" y1="19.9358" x2="36.8431" y2="19.9358" gradientUnits="userSpaceOnUse">
<stop stop-color="#FDA8FF"/>
<stop offset="0.5" stop-color="white"/>
<stop offset="1" stop-color="#73F2FF"/>
</linearGradient>
</defs>
</svg>
