<svg width="38" height="38" viewBox="0 0 38 38" fill="none" xmlns="http://www.w3.org/2000/svg">
<path d="M3.16705 17.3537C2.98324 17.2526 2.8217 17.1155 2.6921 16.9505C2.56251 16.7856 2.46752 16.5962 2.41283 16.3937C2.35814 16.1911 2.34486 15.9797 2.37379 15.7719C2.40273 15.5642 2.47328 15.3644 2.58122 15.1845L4.95622 11.0837C5.13039 10.767 5.39955 10.5453 5.70039 10.4187L18.0979 3.45199C18.3512 3.26199 18.6679 3.16699 19.0004 3.16699C19.3329 3.16699 19.6496 3.26199 19.9029 3.45199L32.4112 10.482C32.7121 10.6403 32.9654 10.8937 33.1079 11.2103L35.4037 15.2003C35.8471 15.9603 35.5779 16.9262 34.8337 17.3537L33.2504 18.272V26.1253C33.2504 26.727 32.9179 27.2495 32.4112 27.5187L19.9029 34.5487C19.6496 34.7387 19.3329 34.8337 19.0004 34.8337C18.6679 34.8337 18.3512 34.7387 18.0979 34.5487L5.58956 27.5187C5.33571 27.3853 5.12328 27.1849 4.97534 26.9392C4.82739 26.6936 4.74959 26.4121 4.75039 26.1253V17.3537C4.27539 17.6228 3.67372 17.6387 3.16705 17.3537ZM19.0004 6.57116V17.1795L28.4371 11.8753L19.0004 6.57116ZM7.91706 25.1912L17.4171 30.5428V19.9187L7.91706 14.5828V25.1912ZM30.0837 25.1912V20.0928L22.1671 24.6845C21.6446 24.9695 21.0587 24.9537 20.5837 24.7003V30.5428L30.0837 25.1912ZM21.9296 21.1537L31.8729 15.4062L30.9546 13.807L21.0112 19.5545L21.9296 21.1537Z" fill="url(#paint0_linear_834_429)"/>
<defs>
<linearGradient id="paint0_linear_834_429" x1="2.35889" y1="18.9397" x2="35.6184" y2="18.9397" gradientUnits="userSpaceOnUse">
<stop stop-color="#FDA8FF"/>
<stop offset="0.5" stop-color="white"/>
<stop offset="1" stop-color="#73F2FF"/>
</linearGradient>
</defs>
</svg>
