<svg width="32" height="33" viewBox="0 0 32 33" fill="none" xmlns="http://www.w3.org/2000/svg">
<path d="M29.9466 8.29655C28.9199 8.76322 27.8132 9.06988 26.6666 9.21655C27.8399 8.50988 28.7466 7.38988 29.1732 6.04322C28.0666 6.70988 26.8399 7.17655 25.5466 7.44322C24.4932 6.29655 23.0132 5.62988 21.3332 5.62988C18.1999 5.62988 15.6399 8.18988 15.6399 11.3499C15.6399 11.8032 15.6932 12.2432 15.7866 12.6565C11.0399 12.4165 6.81322 10.1365 3.99989 6.68322C3.50656 7.52322 3.22656 8.50988 3.22656 9.54988C3.22656 11.5365 4.22656 13.2965 5.77322 14.2965C4.82656 14.2965 3.94656 14.0299 3.17322 13.6299V13.6699C3.17322 16.4432 5.14656 18.7632 7.75989 19.2832C6.92086 19.5128 6.04002 19.5448 5.18656 19.3765C5.5487 20.5132 6.25794 21.5078 7.21458 22.2205C8.17122 22.9332 9.32715 23.3281 10.5199 23.3499C8.49806 24.9505 5.99188 25.8156 3.41322 25.8032C2.95989 25.8032 2.50656 25.7765 2.05322 25.7232C4.58656 27.3499 7.59989 28.2965 10.8266 28.2965C21.3332 28.2965 27.1066 19.5765 27.1066 12.0165C27.1066 11.7632 27.1066 11.5232 27.0932 11.2699C28.2132 10.4699 29.1732 9.45655 29.9466 8.29655Z" fill="url(#paint0_linear_799_391)"/>
<defs>
<linearGradient id="paint0_linear_799_391" x1="2.05322" y1="16.9198" x2="29.9466" y2="16.9198" gradientUnits="userSpaceOnUse">
<stop stop-color="#FDA8FF"/>
<stop offset="0.5" stop-color="white"/>
<stop offset="1" stop-color="#73F2FF"/>
</linearGradient>
</defs>
</svg>
