<svg width="113" height="114" viewBox="0 0 113 114" fill="none" xmlns="http://www.w3.org/2000/svg">
<path d="M69.2653 12.768C70.159 13.018 70.9947 13.4417 71.7245 14.0149C72.4543 14.5881 73.064 15.2995 73.5188 16.1084C73.9736 16.9173 74.2644 17.808 74.3748 18.7294C74.4852 19.6508 74.4128 20.5849 74.162 21.4784L53.2994 95.8087C52.7937 97.6125 51.5921 99.1415 49.959 100.059C48.3259 100.977 46.3951 101.209 44.5913 100.703C42.7876 100.197 41.2585 98.9957 40.3407 97.3627C39.4228 95.7296 39.1913 93.7988 39.697 91.995L60.5596 17.6552C60.8102 16.762 61.2342 15.9268 61.8076 15.1975C62.381 14.4682 63.0925 13.859 63.9014 13.4047C64.7102 12.9504 65.6007 12.6599 66.5219 12.5499C67.4431 12.4398 68.3769 12.5123 69.27 12.7633L69.2653 12.768ZM36.0245 31.7661C37.3471 33.0903 38.09 34.8853 38.09 36.7569C38.09 38.6285 37.3471 40.4235 36.0245 41.7477L21.0521 56.7343L36.034 71.7162C37.3582 73.0411 38.102 74.8378 38.1015 76.7111C38.1011 78.5843 37.3565 80.3807 36.0316 81.7049C34.7067 83.0292 32.91 83.7729 31.0368 83.7725C29.1635 83.7721 27.3672 83.0275 26.0429 81.7026L6.06545 61.7252C4.74288 60.4009 4 58.6059 4 56.7343C4 54.8628 4.74288 53.0677 6.06545 51.7435L26.0382 31.7661C26.694 31.1098 27.4728 30.5892 28.33 30.234C29.1871 29.8787 30.1059 29.6959 31.0337 29.6959C31.9615 29.6959 32.8803 29.8787 33.7375 30.234C34.5946 30.5892 35.3687 31.1098 36.0245 31.7661ZM77.8345 41.7477C77.1406 41.1012 76.5841 40.3215 76.1981 39.4551C75.812 38.5888 75.6045 37.6536 75.5878 36.7053C75.571 35.757 75.7455 34.8151 76.1007 33.9357C76.4559 33.0563 76.9846 32.2574 77.6552 31.5868C78.3259 30.9162 79.1247 30.3875 80.0041 30.0323C80.8835 29.6771 81.8254 29.5026 82.7737 29.5193C83.722 29.5361 84.6572 29.7436 85.5235 30.1296C86.3899 30.5156 87.1696 31.0722 87.8161 31.7661L107.794 51.7388C109.118 53.0632 109.861 54.8593 109.861 56.732C109.861 58.6047 109.118 60.4008 107.794 61.7252L87.8208 81.7026C87.1651 82.3586 86.3866 82.8791 85.5298 83.2342C84.6729 83.5894 83.7545 83.7723 82.827 83.7725C81.8994 83.7727 80.9809 83.5902 80.1239 83.2355C79.2669 82.8807 78.4882 82.3607 77.8321 81.7049C77.1761 81.0492 76.6557 80.2707 76.3005 79.4139C75.9454 78.557 75.7624 77.6386 75.7622 76.7111C75.762 75.7835 75.9445 74.865 76.2992 74.008C76.654 73.151 77.1741 72.3723 77.8298 71.7162L92.8117 56.7343L77.8345 41.7477Z" fill="url(#paint0_linear_834_497)"/>
<defs>
<linearGradient id="paint0_linear_834_497" x1="4" y1="56.5632" x2="109.861" y2="56.5632" gradientUnits="userSpaceOnUse">
<stop stop-color="#FDA8FF"/>
<stop offset="0.5" stop-color="white"/>
<stop offset="1" stop-color="#73F2FF"/>
</linearGradient>
</defs>
</svg>
