<svg width="113" height="113" viewBox="0 0 113 113" fill="none" xmlns="http://www.w3.org/2000/svg">
<path d="M84.0069 81.5803C82.7947 77.8504 79.2979 75.0996 75.1484 75.0996H70.486V61.1124C70.486 59.8759 69.9948 58.69 69.1204 57.8156C68.2461 56.9412 67.0602 56.45 65.8236 56.45H37.8493V47.1253H47.1741C48.4106 47.1253 49.5965 46.634 50.4709 45.7597C51.3453 44.8853 51.8365 43.6994 51.8365 42.4629V33.1381H61.1613C63.6343 33.1381 66.0061 32.1557 67.7549 30.4069C69.5036 28.6582 70.486 26.2864 70.486 23.8133V21.9018C76.0645 24.1507 81.0148 27.718 84.9134 32.2981C88.812 36.8782 91.5427 42.3349 92.8717 48.2009C94.2008 54.067 94.0885 60.1677 92.5447 65.9809C91.0008 71.7941 88.0713 77.1466 84.0069 81.5803ZM51.8365 93.4228C33.4201 91.1382 19.1998 75.4726 19.1998 56.45C19.1998 53.5594 19.5728 50.7619 20.1789 48.1044L42.5117 70.4372V75.0996C42.5117 77.5727 43.4941 79.9445 45.2429 81.6932C46.9916 83.4419 49.3634 84.4244 51.8365 84.4244M56.4989 9.82617C50.3761 9.82617 44.3134 11.0321 38.6567 13.3752C33 15.7183 27.8602 19.1526 23.5308 23.482C14.7871 32.2257 9.875 44.0846 9.875 56.45C9.875 68.8155 14.7871 80.6744 23.5308 89.4181C27.8602 93.7475 33 97.1818 38.6567 99.5249C44.3134 101.868 50.3761 103.074 56.4989 103.074C68.8643 103.074 80.7232 98.1618 89.4669 89.4181C98.2106 80.6744 103.123 68.8155 103.123 56.45C103.123 50.3273 101.917 44.2645 99.5737 38.6079C97.2306 32.9512 93.7963 27.8114 89.4669 23.482C85.1375 19.1526 79.9977 15.7183 74.341 13.3752C68.6844 11.0321 62.6216 9.82617 56.4989 9.82617Z" fill="url(#paint0_linear_834_490)"/>
<defs>
<linearGradient id="paint0_linear_834_490" x1="9.875" y1="56.2714" x2="103.123" y2="56.2714" gradientUnits="userSpaceOnUse">
<stop stop-color="#FDA8FF"/>
<stop offset="0.5" stop-color="white"/>
<stop offset="1" stop-color="#73F2FF"/>
</linearGradient>
</defs>
</svg>
