<svg width="112" height="113" viewBox="0 0 112 113" fill="none" xmlns="http://www.w3.org/2000/svg">
<path d="M26.0435 10.1678C26.6371 10.4532 27.138 10.9005 27.4886 11.4581C27.8392 12.0157 28.0251 12.6609 28.025 13.3196C28.025 17.1894 29.4797 19.418 31.3027 22.1315L31.4379 22.3273C32.9858 24.6305 35.0186 27.6471 35.0186 31.9691C35.0186 36.3797 32.7947 40.2682 29.4051 42.5761C30.2956 43.322 31.0836 44.2405 31.7643 45.3409C33.9836 48.9309 35.0186 54.4185 35.0186 62.298C35.0186 70.28 33.9463 79.8658 32.1979 87.5215C31.3307 91.326 30.2537 94.8368 28.9715 97.471C28.3662 98.7817 27.5643 99.9923 26.5937 101.061C25.6332 102.045 24.1553 103.094 22.1971 103.094C20.2389 103.094 18.7609 102.045 17.8051 101.061C16.8316 99.9945 16.0295 98.7834 15.4273 97.471C14.1405 94.8321 13.0634 91.326 12.1962 87.5168C10.3777 79.2306 9.43225 70.7766 9.37549 62.2933C9.37549 54.4139 10.4105 48.9309 12.6298 45.3409C13.263 44.2988 14.0595 43.3653 14.989 42.5761C13.2582 41.401 11.8416 39.8198 10.863 37.9708C9.88447 36.1217 9.37374 34.0611 9.37549 31.9691C9.37549 30.2534 9.37549 27.3021 11.1612 23.4929C12.9096 19.763 16.2339 15.4783 22.3416 10.5874C22.8564 10.1757 23.477 9.91778 24.132 9.84354C24.787 9.7693 25.4497 9.88171 26.0435 10.1678ZM46.6746 70.0468C44.2045 69.6325 41.8018 68.886 39.5318 67.8275C39.6297 65.9346 39.681 64.079 39.681 62.298C39.681 60.405 39.6251 58.596 39.5038 56.8709C41.5693 58.5727 44.0077 59.8362 46.6746 60.5216V49.4531C46.6746 47.5983 47.4114 45.8194 48.723 44.5079C50.0345 43.1963 51.8134 42.4595 53.6682 42.4595H69.9865C69.987 38.9021 68.9699 35.4188 67.0554 32.4205C65.1409 29.4221 62.4088 27.034 59.1814 25.5376C55.954 24.0413 52.3659 23.4993 48.8405 23.9755C45.3151 24.4517 41.9995 25.9263 39.2847 28.2252C38.4781 24.43 36.6038 21.6513 35.4056 19.8749L35.2191 19.5952C39.4081 16.6422 44.3277 14.8968 49.4411 14.5495C54.5545 14.2021 59.665 15.2662 64.2148 17.6255C68.7646 19.9849 72.5788 23.5488 75.2411 27.9282C77.9033 32.3077 79.3113 37.3343 79.3113 42.4595H95.6297C97.4845 42.4595 99.2633 43.1963 100.575 44.5079C101.886 45.8194 102.623 47.5983 102.623 49.4531V91.4146C102.623 93.2694 101.886 95.0482 100.575 96.3598C99.2633 97.6713 97.4845 98.4081 95.6297 98.4081H53.6682C51.8134 98.4081 50.0345 97.6713 48.723 96.3598C47.4114 95.0482 46.6746 93.2694 46.6746 91.4146V70.0468ZM55.9994 70.0468V89.0834H93.2985V51.7843H77.7214C76.0548 56.4876 73.162 60.6603 69.3423 63.871C65.5226 67.0817 60.9146 69.2138 55.9947 70.0468H55.9994ZM67.4921 51.7843H55.9994V60.5216C58.3987 59.9002 60.6505 58.8076 62.6236 57.3076C64.5967 55.8076 66.2517 53.93 67.4921 51.7843Z" fill="url(#paint0_linear_834_501)"/>
<defs>
<linearGradient id="paint0_linear_834_501" x1="9.37549" y1="56.2789" x2="102.623" y2="56.2789" gradientUnits="userSpaceOnUse">
<stop stop-color="#FDA8FF"/>
<stop offset="0.5" stop-color="white"/>
<stop offset="1" stop-color="#73F2FF"/>
</linearGradient>
</defs>
</svg>
